<?xml version="1.0" encoding="utf-8"?>
<!-- Generator: Adobe Illustrator 15.0.0, SVG Export Plug-In  -->
<!DOCTYPE svg PUBLIC "-//W3C//DTD SVG 1.1//EN" "http://www.w3.org/Graphics/SVG/1.1/DTD/svg11.dtd" [
	<!ENTITY ns_flows "http://ns.adobe.com/Flows/1.0/">
]>
<svg version="1.1"
	 xmlns="http://www.w3.org/2000/svg" xmlns:xlink="http://www.w3.org/1999/xlink" xmlns:a="http://ns.adobe.com/AdobeSVGViewerExtensions/3.0/"
	 x="0px" y="0px" width="184px" height="67px" viewBox="-0.2270508 -0.2436523 184 67"
	 overflow="visible" enable-background="new -0.2270508 -0.2436523 184 67" xml:space="preserve">
<defs>
</defs>
<path d="M54.5258789,60.7680664c0,0.1586914-0.0400391,0.2705078-0.1201172,0.3383789
	c-0.0786133,0.0673828-0.1689453,0.1005859-0.2719727,0.1005859h-3.6132812c0,0.3056641,0.0307617,0.5791016,0.0927734,0.8237305
	c0.0600586,0.2436523,0.1630859,0.4536133,0.3051758,0.6274414c0.1435547,0.1757812,0.3286133,0.309082,0.5581055,0.4023438
	c0.2290039,0.0942383,0.5092773,0.140625,0.8383789,0.140625c0.2626953,0,0.4951172-0.0209961,0.699707-0.0634766
	c0.2041016-0.043457,0.3803711-0.090332,0.5292969-0.1430664c0.1484375-0.0537109,0.2709961-0.1020508,0.3676758-0.1445312
	c0.0947266-0.0419922,0.1669922-0.0644531,0.2172852-0.0644531c0.0288086,0,0.0541992,0.0087891,0.0761719,0.0224609
	s0.0405273,0.0361328,0.0527344,0.0634766c0.012207,0.0292969,0.0205078,0.0683594,0.0268555,0.1196289
	c0.0063477,0.0498047,0.0097656,0.1123047,0.0097656,0.1855469c0,0.0527344-0.0024414,0.0981445-0.0063477,0.1367188
	c-0.0043945,0.0380859-0.0097656,0.0727539-0.0151367,0.1049805c-0.0063477,0.0302734-0.0161133,0.0561523-0.0302734,0.0820312
	c-0.0151367,0.0234375-0.0327148,0.0463867-0.0551758,0.0698242c-0.0229492,0.0229492-0.0878906,0.0585938-0.1982422,0.1083984
	c-0.1088867,0.0512695-0.2514648,0.1020508-0.4272461,0.1499023c-0.1748047,0.0498047-0.3759766,0.09375-0.605957,0.1308594
	c-0.2299805,0.0395508-0.4750977,0.0581055-0.734375,0.0581055c-0.4506836,0-0.8461914-0.0625-1.1855469-0.1889648
	c-0.3393555-0.125-0.6245117-0.3125-0.855957-0.5600586c-0.2324219-0.2485352-0.4072266-0.559082-0.5258789-0.9326172
	c-0.1171875-0.3735352-0.1757812-0.809082-0.1757812-1.3041992c0-0.4726562,0.0610352-0.8959961,0.1831055-1.2729492
	c0.1210938-0.3759766,0.2978516-0.6928711,0.5273438-0.9550781c0.2290039-0.2617188,0.5063477-0.4643555,0.8310547-0.6035156
	c0.3251953-0.1411133,0.6894531-0.2104492,1.0917969-0.2104492c0.4306641,0,0.796875,0.0693359,1.1010742,0.2055664
	c0.3027344,0.1401367,0.550293,0.3251953,0.7460938,0.559082c0.1948242,0.2333984,0.3378906,0.5068359,0.4296875,0.8237305
	c0.0917969,0.3139648,0.137207,0.6489258,0.137207,1.0073242V60.7680664z M53.5151367,60.4697266
	c0.0117188-0.5273438-0.1064453-0.9428711-0.3540039-1.2431641c-0.2470703-0.300293-0.6137695-0.4511719-1.1015625-0.4511719
	c-0.2490234,0-0.4672852,0.0463867-0.6557617,0.140625c-0.1884766,0.09375-0.3452148,0.2172852-0.4726562,0.3720703
	c-0.1264648,0.1533203-0.2246094,0.3339844-0.2944336,0.5380859c-0.0688477,0.2070312-0.1083984,0.4194336-0.1162109,0.6435547
	H53.5151367z"/>
<path d="M60.0244141,63.6352539c0.0327148,0.0556641,0.0488281,0.1040039,0.0488281,0.1420898
	s-0.0195312,0.0708008-0.0576172,0.0942383c-0.0385742,0.0249023-0.0981445,0.0424805-0.1772461,0.0517578
	c-0.0791016,0.0112305-0.1816406,0.015625-0.3076172,0.015625c-0.121582,0-0.2192383-0.0024414-0.2895508-0.0097656
	c-0.0712891-0.0058594-0.1279297-0.0151367-0.1708984-0.0302734c-0.0424805-0.0136719-0.074707-0.0322266-0.0981445-0.0537109
	c-0.0219727-0.0234375-0.0410156-0.0483398-0.0576172-0.078125l-1.315918-2.1757812l-1.3105469,2.1757812
	c-0.0166016,0.0297852-0.0361328,0.0546875-0.0581055,0.078125c-0.0219727,0.0214844-0.0546875,0.0400391-0.0976562,0.0537109
	c-0.0429688,0.0151367-0.0986328,0.0244141-0.1674805,0.0302734c-0.0693359,0.0073242-0.1606445,0.0097656-0.2734375,0.0097656
	c-0.1186523,0-0.2158203-0.0043945-0.2910156-0.015625c-0.074707-0.0092773-0.1298828-0.0268555-0.1645508-0.0517578
	c-0.034668-0.0234375-0.0507812-0.0561523-0.0478516-0.0942383c0.0014648-0.0380859,0.0209961-0.0864258,0.0566406-0.1420898
	l1.7075195-2.6767578l-1.6157227-2.5795898c-0.0322266-0.0566406-0.0507812-0.1044922-0.0522461-0.144043
	c-0.0014648-0.0371094,0.0170898-0.0698242,0.0556641-0.0976562c0.0385742-0.0249023,0.0966797-0.043457,0.1772461-0.0512695
	c0.078125-0.0068359,0.1831055-0.0107422,0.3144531-0.0107422c0.1171875,0,0.2099609,0.0029297,0.2827148,0.0078125
	c0.0712891,0.0063477,0.1259766,0.015625,0.1674805,0.0283203c0.0400391,0.012207,0.0712891,0.0292969,0.0913086,0.0488281
	c0.0195312,0.0195312,0.0380859,0.0449219,0.0551758,0.0722656l1.2490234,2.0429688l1.2685547-2.0429688
	C58.9624023,58.2089844,58.9804688,58.1865234,59,58.1660156c0.0205078-0.0209961,0.0478516-0.0371094,0.0820312-0.0512695
	c0.0351562-0.0141602,0.0839844-0.0253906,0.1459961-0.0317383c0.0634766-0.0048828,0.1499023-0.0078125,0.2602539-0.0078125
	c0.1171875,0,0.2143555,0.0039062,0.2890625,0.0107422c0.0751953,0.0078125,0.1313477,0.0244141,0.1679688,0.0473633
	c0.0361328,0.0214844,0.0532227,0.0532227,0.0488281,0.0942383c-0.0043945,0.0400391-0.0244141,0.0908203-0.0610352,0.1513672
	l-1.6030273,2.5478516L60.0244141,63.6352539z"/>
<path d="M64.1621094,63.3476562c0,0.1176758-0.0063477,0.2099609-0.0229492,0.2797852
	c-0.0161133,0.0698242-0.0415039,0.1206055-0.0727539,0.1533203c-0.0322266,0.03125-0.0810547,0.0629883-0.1469727,0.0908203
	c-0.0644531,0.0273438-0.1381836,0.0517578-0.2226562,0.0693359c-0.0830078,0.0185547-0.1713867,0.034668-0.2651367,0.0463867
	c-0.0922852,0.0117188-0.1865234,0.0185547-0.2802734,0.0185547c-0.284668,0-0.527832-0.0380859-0.7314453-0.1132812
	c-0.2021484-0.0751953-0.3696289-0.1884766-0.5-0.3408203c-0.1293945-0.152832-0.2241211-0.3452148-0.2822266-0.5805664
	c-0.0595703-0.2319336-0.0888672-0.5073242-0.0888672-0.8256836v-3.2050781h-0.7680664
	c-0.0615234,0-0.1103516-0.0327148-0.1469727-0.0981445c-0.0356445-0.0649414-0.0541992-0.1713867-0.0541992-0.3168945
	c0-0.0771484,0.0039062-0.1420898,0.0146484-0.1948242c0.0097656-0.0541992,0.0239258-0.0966797,0.0395508-0.1303711
	c0.0166016-0.0351562,0.0375977-0.0595703,0.0649414-0.074707c0.0258789-0.0131836,0.0556641-0.0209961,0.0878906-0.0209961
	h0.762207v-1.3046875c0-0.0283203,0.0063477-0.0541992,0.0209961-0.0791016
	c0.0146484-0.0229492,0.0405273-0.0439453,0.0795898-0.0625c0.0375977-0.0185547,0.0898438-0.0327148,0.1557617-0.0410156
	c0.0644531-0.0078125,0.1459961-0.0112305,0.2431641-0.0112305c0.1025391,0,0.1855469,0.003418,0.2495117,0.0112305
	c0.065918,0.0083008,0.1157227,0.0224609,0.152832,0.0410156c0.0361328,0.0185547,0.0629883,0.0395508,0.0795898,0.0625
	c0.0166016,0.0249023,0.0239258,0.0507812,0.0239258,0.0791016v1.3046875h1.4091797
	c0.03125,0,0.0600586,0.0078125,0.0844727,0.0209961c0.0244141,0.0151367,0.0454102,0.0395508,0.0639648,0.074707
	c0.0180664,0.0336914,0.03125,0.0761719,0.0400391,0.1303711c0.0073242,0.0527344,0.0102539,0.1176758,0.0102539,0.1948242
	c0,0.1455078-0.0166016,0.2519531-0.0527344,0.3168945c-0.0371094,0.0654297-0.0859375,0.0981445-0.1459961,0.0981445h-1.4091797V62
	c0,0.3774414,0.0556641,0.6630859,0.1669922,0.8574219c0.1123047,0.1928711,0.3129883,0.2875977,0.6010742,0.2875977
	c0.0932617,0,0.1772461-0.0073242,0.2504883-0.0258789c0.0722656-0.0185547,0.1381836-0.0385742,0.1948242-0.0585938
	c0.0571289-0.0195312,0.1049805-0.0390625,0.1464844-0.0576172c0.0400391-0.0170898,0.0761719-0.0263672,0.109375-0.0263672
	c0.0205078,0,0.0395508,0.0039062,0.0571289,0.0146484c0.0185547,0.0107422,0.0336914,0.0288086,0.043457,0.0581055
	c0.0107422,0.0292969,0.019043,0.0668945,0.027832,0.1142578C64.1591797,63.2124023,64.1621094,63.2739258,64.1621094,63.3476562z"
	/>
<path d="M70.0400391,60.7680664c0,0.1586914-0.0395508,0.2705078-0.1191406,0.3383789
	c-0.0795898,0.0673828-0.1704102,0.1005859-0.2724609,0.1005859H66.034668c0,0.3056641,0.0307617,0.5791016,0.0917969,0.8237305
	c0.0605469,0.2436523,0.1645508,0.4536133,0.3076172,0.6274414c0.1420898,0.1757812,0.3276367,0.309082,0.5566406,0.4023438
	c0.2285156,0.0942383,0.5083008,0.140625,0.8383789,0.140625c0.262207,0,0.4951172-0.0209961,0.699707-0.0634766
	c0.2036133-0.043457,0.3803711-0.090332,0.5297852-0.1430664c0.1479492-0.0537109,0.2709961-0.1020508,0.3666992-0.1445312
	c0.0957031-0.0419922,0.1679688-0.0644531,0.2177734-0.0644531c0.0288086,0,0.0537109,0.0087891,0.0761719,0.0224609
	c0.0219727,0.0136719,0.0400391,0.0361328,0.0527344,0.0634766c0.012207,0.0292969,0.0205078,0.0683594,0.027832,0.1196289
	c0.0058594,0.0498047,0.0083008,0.1123047,0.0083008,0.1855469c0,0.0527344-0.0014648,0.0981445-0.0053711,0.1367188
	c-0.0043945,0.0380859-0.0102539,0.0727539-0.0151367,0.1049805c-0.0058594,0.0302734-0.0166016,0.0561523-0.0307617,0.0820312
	c-0.0151367,0.0234375-0.0336914,0.0463867-0.0551758,0.0698242c-0.0229492,0.0229492-0.0883789,0.0585938-0.1977539,0.1083984
	c-0.1098633,0.0512695-0.2524414,0.1020508-0.4267578,0.1499023c-0.1748047,0.0498047-0.3769531,0.09375-0.6069336,0.1308594
	c-0.2294922,0.0395508-0.4741211,0.0581055-0.7338867,0.0581055c-0.4521484,0-0.8466797-0.0625-1.1865234-0.1889648
	c-0.3388672-0.125-0.6245117-0.3125-0.8564453-0.5600586c-0.2319336-0.2485352-0.4067383-0.559082-0.5234375-0.9326172
	c-0.1176758-0.3735352-0.1772461-0.809082-0.1772461-1.3041992c0-0.4726562,0.0610352-0.8959961,0.1826172-1.2729492
	c0.1220703-0.3759766,0.2973633-0.6928711,0.5273438-0.9550781c0.2304688-0.2617188,0.5078125-0.4643555,0.8325195-0.6035156
	c0.3242188-0.1411133,0.6884766-0.2104492,1.0913086-0.2104492c0.4311523,0,0.7973633,0.0693359,1.0996094,0.2055664
	c0.3032227,0.1401367,0.5517578,0.3251953,0.7480469,0.559082c0.1938477,0.2333984,0.3364258,0.5068359,0.4287109,0.8237305
	c0.0917969,0.3139648,0.137207,0.6489258,0.137207,1.0073242V60.7680664z M69.027832,60.4697266
	c0.0131836-0.5273438-0.1054688-0.9428711-0.3525391-1.2431641s-0.6147461-0.4511719-1.1010742-0.4511719
	c-0.2495117,0-0.4672852,0.0463867-0.6557617,0.140625c-0.1884766,0.09375-0.3452148,0.2172852-0.4731445,0.3720703
	c-0.1269531,0.1533203-0.2241211,0.3339844-0.2939453,0.5380859c-0.0693359,0.2070312-0.1083984,0.4194336-0.1166992,0.6435547
	H69.027832z"/>
<path d="M74.7773438,58.6220703c0,0.0913086-0.0019531,0.1655273-0.0068359,0.2265625
	c-0.0043945,0.0615234-0.012207,0.1079102-0.0249023,0.1425781c-0.0112305,0.0356445-0.0268555,0.0620117-0.0454102,0.0800781
	c-0.0180664,0.0170898-0.043457,0.0268555-0.0756836,0.0268555s-0.0717773-0.0097656-0.1196289-0.0268555
	c-0.046875-0.0180664-0.0991211-0.0375977-0.1577148-0.0546875c-0.0600586-0.0185547-0.125-0.0351562-0.1987305-0.0532227
	c-0.0737305-0.0161133-0.1513672-0.0229492-0.2368164-0.0229492c-0.1020508,0-0.2016602,0.0195312-0.2988281,0.0595703
	c-0.0981445,0.0424805-0.199707,0.1098633-0.3085938,0.2016602c-0.1074219,0.0927734-0.2202148,0.21875-0.3378906,0.3710938
	c-0.1181641,0.15625-0.2480469,0.34375-0.3901367,0.5688477v3.6079102c0,0.0332031-0.0083008,0.0595703-0.0249023,0.0830078
	c-0.015625,0.0219727-0.0429688,0.0410156-0.0786133,0.0571289c-0.0371094,0.0161133-0.0869141,0.0292969-0.1523438,0.0375977
	c-0.0654297,0.0073242-0.1484375,0.0117188-0.2504883,0.0117188c-0.0976562,0-0.1777344-0.0043945-0.2436523-0.0117188
	c-0.0649414-0.0083008-0.1176758-0.0214844-0.1552734-0.0375977c-0.0380859-0.0161133-0.0649414-0.0351562-0.0786133-0.0571289
	c-0.0151367-0.0234375-0.0219727-0.0498047-0.0219727-0.0830078v-5.4863281c0-0.0322266,0.0053711-0.059082,0.0185547-0.081543
	c0.0117188-0.0224609,0.0361328-0.0444336,0.0732422-0.0610352c0.0356445-0.0185547,0.0825195-0.03125,0.1396484-0.0375977
	c0.0561523-0.0048828,0.1323242-0.0078125,0.2255859-0.0078125c0.0898438,0,0.1635742,0.0029297,0.222168,0.0078125
	c0.0595703,0.0063477,0.1049805,0.019043,0.1381836,0.0375977c0.03125,0.0166016,0.0556641,0.0385742,0.0688477,0.0610352
	c0.0141602,0.0224609,0.0224609,0.0493164,0.0224609,0.081543v0.7988281
	c0.1499023-0.2197266,0.2915039-0.3979492,0.4233398-0.5366211c0.1323242-0.1386719,0.2568359-0.2456055,0.3740234-0.3251953
	c0.1186523-0.0795898,0.2348633-0.1347656,0.3510742-0.1655273c0.1162109-0.0302734,0.2329102-0.0449219,0.3510742-0.0449219
	c0.0522461,0,0.1123047,0.0019531,0.1791992,0.0087891c0.0668945,0.0058594,0.137207,0.0161133,0.2104492,0.0322266
	c0.0727539,0.0175781,0.1391602,0.034668,0.1992188,0.0551758c0.0585938,0.0200195,0.0991211,0.0429688,0.1240234,0.0610352
	c0.0244141,0.0205078,0.0405273,0.0405273,0.0483398,0.0581055c0.0083008,0.0185547,0.015625,0.0419922,0.0205078,0.0698242
	c0.0073242,0.0297852,0.0117188,0.0708008,0.0136719,0.125C74.7758789,58.4555664,74.7773438,58.5297852,74.7773438,58.6220703z"/>
<path d="M77.0439453,56.409668c0,0.2363281-0.0439453,0.3964844-0.1333008,0.4824219
	c-0.0898438,0.0859375-0.2543945,0.128418-0.4936523,0.128418c-0.2363281,0-0.3979492-0.0424805-0.484375-0.1259766
	c-0.0878906-0.0834961-0.1313477-0.2416992-0.1313477-0.472168c0-0.2358398,0.0444336-0.3950195,0.1337891-0.4814453
	c0.0893555-0.0859375,0.2539062-0.1269531,0.4931641-0.1269531c0.2363281,0,0.3979492,0.0400391,0.4853516,0.125
	C77.0014648,56.0224609,77.0439453,56.1791992,77.0439453,56.409668z M76.9287109,63.7495117
	c0,0.0332031-0.0083008,0.0595703-0.0249023,0.0830078c-0.015625,0.0219727-0.0429688,0.0410156-0.0791016,0.0571289
	c-0.0366211,0.0161133-0.0864258,0.0292969-0.1518555,0.0375977c-0.0654297,0.0073242-0.1484375,0.0117188-0.2509766,0.0117188
	c-0.097168,0-0.1772461-0.0043945-0.2431641-0.0117188c-0.0649414-0.0083008-0.1176758-0.0214844-0.1552734-0.0375977
	c-0.0380859-0.0161133-0.0649414-0.0351562-0.0786133-0.0571289c-0.015625-0.0234375-0.0219727-0.0498047-0.0219727-0.0830078
	v-5.4863281c0-0.0283203,0.0063477-0.0541992,0.0219727-0.0786133c0.0136719-0.0244141,0.0405273-0.0439453,0.0786133-0.0610352
	c0.0375977-0.0175781,0.090332-0.0297852,0.1552734-0.0375977c0.065918-0.0068359,0.1459961-0.0107422,0.2431641-0.0107422
	c0.1025391,0,0.1855469,0.0039062,0.2509766,0.0107422c0.0654297,0.0078125,0.1152344,0.0200195,0.1518555,0.0375977
	c0.0361328,0.0170898,0.0634766,0.0366211,0.0791016,0.0610352c0.0166016,0.0244141,0.0249023,0.050293,0.0249023,0.0786133
	V63.7495117z"/>
<path d="M83.890625,60.9462891c0,0.4458008-0.0605469,0.8574219-0.1767578,1.2338867
	c-0.1186523,0.3764648-0.2944336,0.699707-0.5273438,0.9726562c-0.234375,0.2714844-0.5268555,0.4848633-0.8789062,0.6376953
	c-0.3515625,0.1503906-0.7583008,0.2270508-1.2216797,0.2270508c-0.4516602,0-0.8442383-0.0673828-1.1796875-0.2011719
	c-0.3349609-0.1342773-0.6142578-0.3286133-0.8378906-0.5854492c-0.2231445-0.2543945-0.3901367-0.5654297-0.5-0.9316406
	c-0.1103516-0.3666992-0.1640625-0.7807617-0.1640625-1.2441406c0-0.4472656,0.0576172-0.8574219,0.1728516-1.2329102
	c0.1171875-0.3779297,0.2910156-0.7011719,0.5249023-0.9736328c0.2324219-0.2724609,0.5253906-0.4838867,0.8740234-0.6347656
	c0.3496094-0.1508789,0.7578125-0.2241211,1.2260742-0.2241211c0.4516602,0,0.8452148,0.0668945,1.1782227,0.2011719
	c0.3354492,0.1323242,0.6147461,0.328125,0.8398438,0.5844727c0.2226562,0.2548828,0.3911133,0.5664062,0.5029297,0.9321289
	C83.8339844,60.074707,83.890625,60.4863281,83.890625,60.9462891z M82.8476562,61.0117188
	c0-0.2958984-0.0288086-0.5751953-0.0820312-0.840332c-0.0561523-0.2636719-0.1469727-0.4960938-0.2729492-0.6953125
	c-0.128418-0.199707-0.2993164-0.3574219-0.5175781-0.4716797c-0.2177734-0.1162109-0.4892578-0.1748047-0.8134766-0.1748047
	c-0.2998047,0-0.5571289,0.0537109-0.7714844,0.159668c-0.215332,0.1049805-0.3920898,0.2543945-0.5317383,0.4477539
	c-0.1391602,0.1923828-0.2436523,0.421875-0.3110352,0.6865234c-0.0683594,0.2631836-0.1015625,0.5512695-0.1015625,0.8642578
	c0,0.3007812,0.0283203,0.5834961,0.0839844,0.8466797c0.0551758,0.2651367,0.1464844,0.4970703,0.2753906,0.6928711
	c0.1293945,0.1977539,0.3022461,0.3535156,0.5205078,0.4697266c0.2172852,0.1157227,0.4882812,0.1743164,0.8120117,0.1743164
	c0.2954102,0,0.5517578-0.0532227,0.7705078-0.1591797c0.215332-0.105957,0.3925781-0.2543945,0.5322266-0.4443359
	c0.1416016-0.1923828,0.2446289-0.4189453,0.3081055-0.6831055C82.8144531,61.6201172,82.8476562,61.3295898,82.8476562,61.0117188z
	"/>
<path d="M88.5786133,58.6220703c0,0.0913086-0.0019531,0.1655273-0.0063477,0.2265625
	c-0.0043945,0.0615234-0.0136719,0.1079102-0.0244141,0.1425781c-0.0126953,0.0356445-0.0263672,0.0620117-0.0454102,0.0800781
	c-0.0200195,0.0170898-0.0463867,0.0268555-0.0771484,0.0268555c-0.0317383,0-0.0722656-0.0097656-0.1176758-0.0268555
	c-0.0478516-0.0180664-0.1005859-0.0375977-0.1567383-0.0546875c-0.0615234-0.0185547-0.1269531-0.0351562-0.2011719-0.0532227
	c-0.0717773-0.0161133-0.1513672-0.0229492-0.2358398-0.0229492c-0.1030273,0-0.2036133,0.0195312-0.2998047,0.0595703
	c-0.0986328,0.0424805-0.2011719,0.1098633-0.3100586,0.2016602c-0.1049805,0.0927734-0.2182617,0.21875-0.3359375,0.3710938
	c-0.1186523,0.15625-0.2495117,0.34375-0.390625,0.5688477v3.6079102c0,0.0332031-0.0063477,0.0595703-0.0253906,0.0830078
	c-0.0146484,0.0219727-0.0424805,0.0410156-0.078125,0.0571289c-0.0361328,0.0161133-0.0869141,0.0292969-0.152832,0.0375977
	c-0.0644531,0.0073242-0.1479492,0.0117188-0.2504883,0.0117188c-0.0966797,0-0.1782227-0.0043945-0.2426758-0.0117188
	c-0.0644531-0.0083008-0.1171875-0.0214844-0.1552734-0.0375977c-0.0400391-0.0161133-0.0654297-0.0351562-0.0795898-0.0571289
	c-0.0141602-0.0234375-0.0209961-0.0498047-0.0209961-0.0830078v-5.4863281c0-0.0322266,0.0043945-0.059082,0.0175781-0.081543
	s0.0361328-0.0444336,0.0732422-0.0610352c0.0366211-0.0185547,0.0839844-0.03125,0.1411133-0.0375977
	c0.0566406-0.0048828,0.1318359-0.0078125,0.2250977-0.0078125c0.0888672,0,0.1640625,0.0029297,0.2211914,0.0078125
	c0.0605469,0.0063477,0.105957,0.019043,0.1386719,0.0375977c0.0317383,0.0166016,0.0551758,0.0385742,0.0698242,0.0610352
	c0.0141602,0.0224609,0.0200195,0.0493164,0.0200195,0.081543v0.7988281
	c0.1503906-0.2197266,0.2924805-0.3979492,0.4248047-0.5366211s0.2563477-0.2456055,0.3735352-0.3251953
	c0.1186523-0.0795898,0.2363281-0.1347656,0.3505859-0.1655273c0.1176758-0.0302734,0.2329102-0.0449219,0.3535156-0.0449219
	c0.0498047,0,0.1113281,0.0019531,0.1767578,0.0087891c0.0678711,0.0058594,0.1376953,0.0161133,0.2119141,0.0322266
	c0.0722656,0.0175781,0.1396484,0.034668,0.1967773,0.0551758c0.0615234,0.0200195,0.1005859,0.0429688,0.1259766,0.0610352
	c0.0244141,0.0205078,0.0424805,0.0405273,0.0488281,0.0581055c0.0063477,0.0185547,0.0126953,0.0419922,0.0214844,0.0698242
	c0.0073242,0.0297852,0.0112305,0.0708008,0.0136719,0.125C88.5766602,58.4555664,88.5786133,58.5297852,88.5786133,58.6220703z"/>
<path d="M94.9614258,65.9311523c0,0.0341797-0.0087891,0.0620117-0.0244141,0.0864258
	c-0.0117188,0.0249023-0.0390625,0.043457-0.0732422,0.0610352c-0.0351562,0.0166016-0.0859375,0.0292969-0.1484375,0.0356445
	c-0.0595703,0.0092773-0.1376953,0.0136719-0.2294922,0.0136719c-0.0908203,0-0.1669922-0.0043945-0.2285156-0.0136719
	c-0.0595703-0.0063477-0.1083984-0.019043-0.1455078-0.0356445c-0.0351562-0.0175781-0.0615234-0.0361328-0.0742188-0.0610352
	c-0.0146484-0.0244141-0.0244141-0.0522461-0.0244141-0.0864258v-10.581543c0-0.0288086,0.0097656-0.0556641,0.0244141-0.0786133
	c0.0126953-0.0258789,0.0390625-0.043457,0.0742188-0.0610352c0.0371094-0.0175781,0.0859375-0.0297852,0.1455078-0.0366211
	c0.0615234-0.0097656,0.1376953-0.0126953,0.2285156-0.0126953c0.0917969,0,0.1699219,0.0029297,0.2294922,0.0126953
	c0.0625,0.0068359,0.1132812,0.019043,0.1484375,0.0366211c0.0341797,0.0175781,0.0615234,0.0351562,0.0732422,0.0610352
	c0.015625,0.0229492,0.0244141,0.0498047,0.0244141,0.0786133V65.9311523z"/>
<path d="M102.237793,56.409668c0,0.2363281-0.0439453,0.3964844-0.1308594,0.4824219
	c-0.0917969,0.0859375-0.2558594,0.128418-0.4960938,0.128418c-0.2363281,0-0.3974609-0.0424805-0.4853516-0.1259766
	c-0.0859375-0.0834961-0.1308594-0.2416992-0.1308594-0.472168c0-0.2358398,0.046875-0.3950195,0.1337891-0.4814453
	c0.0917969-0.0859375,0.2558594-0.1269531,0.4960938-0.1269531c0.2353516,0,0.3945312,0.0400391,0.4853516,0.125
	C102.1938477,56.0224609,102.237793,56.1791992,102.237793,56.409668z M102.1225586,63.7495117
	c0,0.0332031-0.0087891,0.0595703-0.0244141,0.0830078c-0.0146484,0.0219727-0.0419922,0.0410156-0.0791016,0.0571289
	s-0.0878906,0.0292969-0.1523438,0.0375977c-0.0654297,0.0073242-0.1464844,0.0117188-0.25,0.0117188
	c-0.0966797,0-0.1787109-0.0043945-0.2441406-0.0117188c-0.0654297-0.0083008-0.1152344-0.0214844-0.1542969-0.0375977
	c-0.0371094-0.0161133-0.0654297-0.0351562-0.078125-0.0571289c-0.0166016-0.0234375-0.0224609-0.0498047-0.0224609-0.0830078
	v-5.4863281c0-0.0283203,0.0058594-0.0541992,0.0224609-0.0786133c0.0126953-0.0244141,0.0410156-0.0439453,0.078125-0.0610352
	c0.0390625-0.0175781,0.0888672-0.0297852,0.1542969-0.0375977c0.0654297-0.0068359,0.1474609-0.0107422,0.2441406-0.0107422
	c0.1035156,0,0.1845703,0.0039062,0.25,0.0107422c0.0644531,0.0078125,0.1152344,0.0200195,0.1523438,0.0375977
	c0.0371094,0.0170898,0.0644531,0.0366211,0.0791016,0.0610352c0.015625,0.0244141,0.0244141,0.050293,0.0244141,0.0786133
	V63.7495117z"/>
<path d="M108.706543,63.7495117c0,0.0332031-0.0078125,0.0595703-0.0244141,0.0830078
	c-0.0175781,0.0219727-0.0429688,0.0410156-0.078125,0.0571289c-0.0371094,0.0161133-0.0878906,0.0292969-0.1533203,0.0375977
	c-0.0664062,0.0073242-0.1464844,0.0117188-0.2431641,0.0117188c-0.1025391,0-0.1845703-0.0043945-0.2509766-0.0117188
	c-0.0654297-0.0083008-0.1152344-0.0214844-0.1533203-0.0375977c-0.0371094-0.0161133-0.0625-0.0351562-0.078125-0.0571289
	c-0.0146484-0.0234375-0.0263672-0.0498047-0.0263672-0.0830078v-3.2124023c0-0.3120117-0.0234375-0.5639648-0.0703125-0.7543945
	c-0.0498047-0.1933594-0.1210938-0.3569336-0.2158203-0.4946289c-0.0888672-0.1391602-0.2138672-0.2446289-0.359375-0.3173828
	c-0.1494141-0.0732422-0.3222656-0.1098633-0.515625-0.1098633c-0.2519531,0-0.5058594,0.0883789-0.7587891,0.2685547
	c-0.2480469,0.1787109-0.5136719,0.4404297-0.7910156,0.7851562v3.8349609c0,0.0332031-0.0078125,0.0595703-0.0234375,0.0830078
	c-0.0175781,0.0219727-0.0439453,0.0410156-0.0810547,0.0571289c-0.0351562,0.0161133-0.0878906,0.0292969-0.1503906,0.0375977
	c-0.0654297,0.0073242-0.1494141,0.0117188-0.25,0.0117188c-0.0966797,0-0.1787109-0.0043945-0.2441406-0.0117188
	c-0.0654297-0.0083008-0.1181641-0.0214844-0.1542969-0.0375977c-0.0400391-0.0161133-0.0664062-0.0351562-0.0820312-0.0571289
	c-0.0146484-0.0234375-0.0214844-0.0498047-0.0214844-0.0830078v-5.4863281c0-0.0322266,0.0068359-0.059082,0.0195312-0.081543
	c0.0117188-0.0224609,0.0371094-0.0444336,0.0722656-0.0610352c0.0380859-0.0185547,0.0849609-0.03125,0.1396484-0.0375977
	c0.0566406-0.0048828,0.1328125-0.0078125,0.2255859-0.0078125c0.0917969,0,0.1660156,0.0029297,0.2226562,0.0078125
	c0.0605469,0.0063477,0.1074219,0.019043,0.1367188,0.0375977c0.0332031,0.0166016,0.0576172,0.0385742,0.0732422,0.0610352
	c0.0126953,0.0224609,0.0214844,0.0493164,0.0214844,0.081543v0.7260742
	c0.3076172-0.3457031,0.6162109-0.5981445,0.921875-0.7583008c0.3056641-0.1606445,0.6162109-0.2412109,0.9306641-0.2412109
	c0.3642578,0,0.6699219,0.0620117,0.9248047,0.1850586c0.2480469,0.1240234,0.4492188,0.2900391,0.6064453,0.4960938
	c0.1533203,0.2075195,0.2646484,0.4501953,0.3300781,0.7285156c0.0673828,0.2792969,0.1005859,0.6137695,0.1005859,1.0048828
	V63.7495117z"/>
<path d="M113.277832,63.3476562c0,0.1176758-0.0058594,0.2099609-0.0244141,0.2797852
	c-0.0146484,0.0698242-0.0410156,0.1206055-0.0732422,0.1533203c-0.03125,0.03125-0.0810547,0.0629883-0.1464844,0.0908203
	c-0.0634766,0.0273438-0.1376953,0.0517578-0.2236328,0.0693359c-0.0820312,0.0185547-0.1699219,0.034668-0.2636719,0.0463867
	c-0.0917969,0.0117188-0.1865234,0.0185547-0.2792969,0.0185547c-0.2871094,0-0.5292969-0.0380859-0.7324219-0.1132812
	c-0.2001953-0.0751953-0.3710938-0.1884766-0.5-0.3408203c-0.1308594-0.152832-0.2226562-0.3452148-0.28125-0.5805664
	c-0.0595703-0.2319336-0.0878906-0.5073242-0.0878906-0.8256836v-3.2050781h-0.7685547
	c-0.0634766,0-0.1113281-0.0327148-0.1484375-0.0981445c-0.0351562-0.0649414-0.0527344-0.1713867-0.0527344-0.3168945
	c0-0.0771484,0.0039062-0.1420898,0.0136719-0.1948242c0.0107422-0.0541992,0.0234375-0.0966797,0.0390625-0.1303711
	c0.0166016-0.0351562,0.0390625-0.0595703,0.0654297-0.074707c0.0253906-0.0131836,0.0537109-0.0209961,0.0869141-0.0209961
	h0.7646484v-1.3046875c0-0.0283203,0.0068359-0.0541992,0.0195312-0.0791016
	c0.0126953-0.0229492,0.0390625-0.0439453,0.0791016-0.0625c0.0361328-0.0185547,0.0917969-0.0327148,0.1552734-0.0410156
	c0.0654297-0.0078125,0.1464844-0.0112305,0.2421875-0.0112305c0.1025391,0,0.1855469,0.003418,0.2529297,0.0112305
	c0.0634766,0.0083008,0.1132812,0.0224609,0.1503906,0.0410156s0.0634766,0.0395508,0.0800781,0.0625
	c0.0166016,0.0249023,0.0224609,0.0507812,0.0224609,0.0791016v1.3046875h1.4091797
	c0.0332031,0,0.0615234,0.0078125,0.0859375,0.0209961c0.0253906,0.0151367,0.0458984,0.0395508,0.0654297,0.074707
	c0.0175781,0.0336914,0.0302734,0.0761719,0.0400391,0.1303711c0.0058594,0.0527344,0.0097656,0.1176758,0.0097656,0.1948242
	c0,0.1455078-0.0195312,0.2519531-0.0527344,0.3168945c-0.0371094,0.0654297-0.0869141,0.0981445-0.1484375,0.0981445h-1.4091797V62
	c0,0.3774414,0.0576172,0.6630859,0.1689453,0.8574219c0.1113281,0.1928711,0.3125,0.2875977,0.6015625,0.2875977
	c0.0927734,0,0.1767578-0.0073242,0.2480469-0.0258789c0.0742188-0.0185547,0.1396484-0.0385742,0.1972656-0.0585938
	c0.0556641-0.0195312,0.1044922-0.0390625,0.1464844-0.0576172c0.0390625-0.0170898,0.0761719-0.0263672,0.1083984-0.0263672
	c0.0205078,0,0.0390625,0.0039062,0.0595703,0.0146484c0.0166016,0.0107422,0.0332031,0.0288086,0.0410156,0.0581055
	c0.0107422,0.0292969,0.0195312,0.0668945,0.0292969,0.1142578C113.2739258,63.2124023,113.277832,63.2739258,113.277832,63.3476562
	z"/>
<path d="M119.1567383,60.7680664c0,0.1586914-0.0390625,0.2705078-0.1201172,0.3383789
	c-0.0791016,0.0673828-0.1699219,0.1005859-0.2734375,0.1005859h-3.6132812c0,0.3056641,0.03125,0.5791016,0.0927734,0.8237305
	c0.0605469,0.2436523,0.1640625,0.4536133,0.3056641,0.6274414c0.1416016,0.1757812,0.3271484,0.309082,0.5585938,0.4023438
	c0.2265625,0.0942383,0.5078125,0.140625,0.8388672,0.140625c0.2607422,0,0.4931641-0.0209961,0.6962891-0.0634766
	c0.2060547-0.043457,0.3828125-0.090332,0.5322266-0.1430664c0.1474609-0.0537109,0.2695312-0.1020508,0.3662109-0.1445312
	c0.0957031-0.0419922,0.1679688-0.0644531,0.21875-0.0644531c0.0273438,0,0.0537109,0.0087891,0.0742188,0.0224609
	c0.0234375,0.0136719,0.0410156,0.0361328,0.0537109,0.0634766c0.0117188,0.0292969,0.0205078,0.0683594,0.0292969,0.1196289
	c0.0039062,0.0498047,0.0058594,0.1123047,0.0058594,0.1855469c0,0.0527344-0.0019531,0.0981445-0.0039062,0.1367188
	c-0.0048828,0.0380859-0.0107422,0.0727539-0.0146484,0.1049805c-0.0068359,0.0302734-0.0185547,0.0561523-0.03125,0.0820312
	c-0.015625,0.0234375-0.0332031,0.0463867-0.0546875,0.0698242c-0.0234375,0.0229492-0.0869141,0.0585938-0.1982422,0.1083984
	c-0.1103516,0.0512695-0.2519531,0.1020508-0.4287109,0.1499023c-0.1748047,0.0498047-0.3759766,0.09375-0.6044922,0.1308594
	c-0.2294922,0.0395508-0.4765625,0.0581055-0.7373047,0.0581055c-0.4492188,0-0.8447266-0.0625-1.1835938-0.1889648
	c-0.3408203-0.125-0.6240234-0.3125-0.8564453-0.5600586c-0.2304688-0.2485352-0.4082031-0.559082-0.5244141-0.9326172
	c-0.1171875-0.3735352-0.1767578-0.809082-0.1767578-1.3041992c0-0.4726562,0.0615234-0.8959961,0.1816406-1.2729492
	c0.125-0.3759766,0.2998047-0.6928711,0.5292969-0.9550781c0.2285156-0.2617188,0.5058594-0.4643555,0.8320312-0.6035156
	c0.3232422-0.1411133,0.6884766-0.2104492,1.0898438-0.2104492c0.4326172,0,0.7988281,0.0693359,1.1005859,0.2055664
	c0.3037109,0.1401367,0.5507812,0.3251953,0.7480469,0.559082c0.1933594,0.2333984,0.3369141,0.5068359,0.4277344,0.8237305
	c0.09375,0.3139648,0.1396484,0.6489258,0.1396484,1.0073242V60.7680664z M118.1430664,60.4697266
	c0.0107422-0.5273438-0.1044922-0.9428711-0.3535156-1.2431641c-0.2451172-0.300293-0.6123047-0.4511719-1.0986328-0.4511719
	c-0.2519531,0-0.4707031,0.0463867-0.6582031,0.140625c-0.1855469,0.09375-0.3447266,0.2172852-0.4736328,0.3720703
	c-0.125,0.1533203-0.2236328,0.3339844-0.2939453,0.5380859c-0.0693359,0.2070312-0.1064453,0.4194336-0.1152344,0.6435547
	H118.1430664z"/>
<path d="M123.8920898,58.6220703c0,0.0913086-0.0019531,0.1655273-0.0058594,0.2265625
	c-0.0068359,0.0615234-0.0107422,0.1079102-0.0273438,0.1425781c-0.0097656,0.0356445-0.0263672,0.0620117-0.0429688,0.0800781
	c-0.0205078,0.0170898-0.0429688,0.0268555-0.0761719,0.0268555s-0.0722656-0.0097656-0.1210938-0.0268555
	c-0.0449219-0.0180664-0.0966797-0.0375977-0.15625-0.0546875c-0.0595703-0.0185547-0.125-0.0351562-0.1992188-0.0532227
	c-0.0742188-0.0161133-0.1523438-0.0229492-0.2382812-0.0229492c-0.1005859,0-0.1992188,0.0195312-0.296875,0.0595703
	c-0.0976562,0.0424805-0.1982422,0.1098633-0.3076172,0.2016602c-0.1074219,0.0927734-0.2207031,0.21875-0.3388672,0.3710938
	c-0.1181641,0.15625-0.2490234,0.34375-0.3916016,0.5688477v3.6079102c0,0.0332031-0.0087891,0.0595703-0.0214844,0.0830078
	c-0.0175781,0.0219727-0.0458984,0.0410156-0.0800781,0.0571289c-0.0380859,0.0161133-0.0878906,0.0292969-0.1533203,0.0375977
	c-0.0634766,0.0073242-0.1464844,0.0117188-0.2490234,0.0117188c-0.0986328,0-0.1787109-0.0043945-0.2421875-0.0117188
	c-0.0683594-0.0083008-0.1210938-0.0214844-0.1582031-0.0375977c-0.0390625-0.0161133-0.0634766-0.0351562-0.078125-0.0571289
	c-0.0146484-0.0234375-0.0224609-0.0498047-0.0224609-0.0830078v-5.4863281c0-0.0322266,0.0058594-0.059082,0.0185547-0.081543
	s0.0371094-0.0444336,0.0732422-0.0610352c0.0371094-0.0185547,0.0830078-0.03125,0.1376953-0.0375977
	c0.0595703-0.0048828,0.1337891-0.0078125,0.2285156-0.0078125c0.0888672,0,0.1630859,0.0029297,0.2216797,0.0078125
	c0.0595703,0.0063477,0.1054688,0.019043,0.1376953,0.0375977c0.0332031,0.0166016,0.0576172,0.0385742,0.0703125,0.0610352
	c0.015625,0.0224609,0.0214844,0.0493164,0.0214844,0.081543v0.7988281
	c0.1503906-0.2197266,0.2910156-0.3979492,0.4238281-0.5366211c0.1289062-0.1386719,0.2548828-0.2456055,0.3740234-0.3251953
	c0.1171875-0.0795898,0.2333984-0.1347656,0.3496094-0.1655273c0.1171875-0.0302734,0.2353516-0.0449219,0.3515625-0.0449219
	c0.0527344,0,0.1132812,0.0019531,0.1787109,0.0087891c0.0693359,0.0058594,0.1376953,0.0161133,0.2119141,0.0322266
	c0.0712891,0.0175781,0.1396484,0.034668,0.1982422,0.0551758c0.0576172,0.0200195,0.0986328,0.0429688,0.125,0.0610352
	c0.0234375,0.0205078,0.0419922,0.0405273,0.0478516,0.0581055c0.0087891,0.0185547,0.015625,0.0419922,0.0205078,0.0698242
	c0.0058594,0.0297852,0.0107422,0.0708008,0.0126953,0.125C123.8901367,58.4555664,123.8920898,58.5297852,123.8920898,58.6220703z"
	/>
<path d="M126.1577148,56.409668c0,0.2363281-0.0429688,0.3964844-0.1308594,0.4824219
	c-0.0927734,0.0859375-0.2558594,0.128418-0.4960938,0.128418c-0.2333984,0-0.3974609-0.0424805-0.484375-0.1259766
	c-0.0878906-0.0834961-0.1318359-0.2416992-0.1318359-0.472168c0-0.2358398,0.0439453-0.3950195,0.1337891-0.4814453
	c0.0908203-0.0859375,0.2548828-0.1269531,0.4951172-0.1269531c0.234375,0,0.3984375,0.0400391,0.4853516,0.125
	C126.1147461,56.0224609,126.1577148,56.1791992,126.1577148,56.409668z M126.0415039,63.7495117
	c0,0.0332031-0.0068359,0.0595703-0.0214844,0.0830078c-0.0175781,0.0219727-0.0458984,0.0410156-0.078125,0.0571289
	c-0.0400391,0.0161133-0.0898438,0.0292969-0.1552734,0.0375977c-0.0634766,0.0073242-0.1464844,0.0117188-0.2490234,0.0117188
	c-0.0986328,0-0.1787109-0.0043945-0.2451172-0.0117188c-0.0654297-0.0083008-0.1162109-0.0214844-0.1552734-0.0375977
	c-0.0371094-0.0161133-0.0634766-0.0351562-0.078125-0.0571289c-0.0146484-0.0234375-0.0224609-0.0498047-0.0224609-0.0830078
	v-5.4863281c0-0.0283203,0.0078125-0.0541992,0.0224609-0.0786133s0.0410156-0.0439453,0.078125-0.0610352
	c0.0390625-0.0175781,0.0898438-0.0297852,0.1552734-0.0375977c0.0664062-0.0068359,0.1464844-0.0107422,0.2451172-0.0107422
	c0.1025391,0,0.1855469,0.0039062,0.2490234,0.0107422c0.0654297,0.0078125,0.1152344,0.0200195,0.1552734,0.0375977
	c0.0322266,0.0170898,0.0605469,0.0366211,0.078125,0.0610352c0.0146484,0.0244141,0.0214844,0.050293,0.0214844,0.0786133
	V63.7495117z"/>
<path d="M133.0063477,60.9462891c0,0.4458008-0.0615234,0.8574219-0.1748047,1.2338867
	c-0.1201172,0.3764648-0.2958984,0.699707-0.53125,0.9726562c-0.2333984,0.2714844-0.5263672,0.4848633-0.8759766,0.6376953
	c-0.3535156,0.1503906-0.7607422,0.2270508-1.2226562,0.2270508c-0.4521484,0-0.8466797-0.0673828-1.1816406-0.2011719
	c-0.3330078-0.1342773-0.6142578-0.3286133-0.8378906-0.5854492c-0.2226562-0.2543945-0.3886719-0.5654297-0.5-0.9316406
	c-0.1083984-0.3666992-0.1640625-0.7807617-0.1640625-1.2441406c0-0.4472656,0.0576172-0.8574219,0.1728516-1.2329102
	c0.1162109-0.3779297,0.2929688-0.7011719,0.5263672-0.9736328c0.2314453-0.2724609,0.5273438-0.4838867,0.8720703-0.6347656
	c0.3515625-0.1508789,0.7607422-0.2241211,1.2275391-0.2241211c0.4501953,0,0.8457031,0.0668945,1.1796875,0.2011719
	c0.3359375,0.1323242,0.6132812,0.328125,0.8388672,0.5844727c0.2226562,0.2548828,0.3886719,0.5664062,0.5019531,0.9321289
	C132.9467773,60.074707,133.0063477,60.4863281,133.0063477,60.9462891z M131.9624023,61.0117188
	c0-0.2958984-0.0292969-0.5751953-0.0839844-0.840332c-0.0517578-0.2636719-0.1464844-0.4960938-0.2705078-0.6953125
	c-0.1289062-0.199707-0.2988281-0.3574219-0.5175781-0.4716797c-0.21875-0.1162109-0.4902344-0.1748047-0.8125-0.1748047
	c-0.2998047,0-0.5576172,0.0537109-0.7734375,0.159668c-0.2148438,0.1049805-0.3916016,0.2543945-0.5332031,0.4477539
	c-0.1396484,0.1923828-0.2402344,0.421875-0.3105469,0.6865234c-0.0673828,0.2631836-0.0986328,0.5512695-0.0986328,0.8642578
	c0,0.3007812,0.0263672,0.5834961,0.0839844,0.8466797c0.0537109,0.2651367,0.1435547,0.4970703,0.2753906,0.6928711
	c0.1269531,0.1977539,0.3017578,0.3535156,0.5195312,0.4697266c0.2158203,0.1157227,0.4873047,0.1743164,0.8105469,0.1743164
	c0.2949219,0,0.5527344-0.0532227,0.7714844-0.1591797c0.2158203-0.105957,0.3925781-0.2543945,0.5322266-0.4443359
	c0.1396484-0.1923828,0.2451172-0.4189453,0.3105469-0.6831055
	C131.9291992,61.6201172,131.9624023,61.3295898,131.9624023,61.0117188z"/>
<path d="M137.6938477,58.6220703c0,0.0913086-0.0019531,0.1655273-0.0078125,0.2265625
	c-0.0058594,0.0615234-0.0117188,0.1079102-0.0224609,0.1425781c-0.0136719,0.0356445-0.0292969,0.0620117-0.0458984,0.0800781
	c-0.0195312,0.0170898-0.0439453,0.0268555-0.0791016,0.0268555c-0.03125,0-0.0703125-0.0097656-0.1171875-0.0268555
	c-0.0458984-0.0180664-0.1015625-0.0375977-0.15625-0.0546875c-0.0605469-0.0185547-0.1259766-0.0351562-0.2001953-0.0532227
	c-0.0712891-0.0161133-0.1533203-0.0229492-0.2363281-0.0229492c-0.1025391,0-0.2011719,0.0195312-0.2988281,0.0595703
	c-0.0986328,0.0424805-0.2011719,0.1098633-0.3085938,0.2016602c-0.109375,0.0927734-0.2197266,0.21875-0.3388672,0.3710938
	c-0.1191406,0.15625-0.2490234,0.34375-0.390625,0.5688477v3.6079102c0,0.0332031-0.0058594,0.0595703-0.0224609,0.0830078
	c-0.0185547,0.0219727-0.0449219,0.0410156-0.0820312,0.0571289s-0.0859375,0.0292969-0.1503906,0.0375977
	c-0.0634766,0.0073242-0.1494141,0.0117188-0.25,0.0117188c-0.0976562,0-0.1787109-0.0043945-0.2441406-0.0117188
	c-0.0664062-0.0083008-0.1181641-0.0214844-0.1552734-0.0375977c-0.0390625-0.0161133-0.0654297-0.0351562-0.078125-0.0571289
	c-0.0175781-0.0234375-0.0244141-0.0498047-0.0244141-0.0830078v-5.4863281c0-0.0322266,0.0068359-0.059082,0.0195312-0.081543
	c0.0136719-0.0224609,0.0371094-0.0444336,0.0751953-0.0610352c0.0371094-0.0185547,0.0820312-0.03125,0.1376953-0.0375977
	c0.0576172-0.0048828,0.1318359-0.0078125,0.2265625-0.0078125c0.0898438,0,0.1640625,0.0029297,0.2207031,0.0078125
	c0.0605469,0.0063477,0.1074219,0.019043,0.1396484,0.0375977c0.03125,0.0166016,0.0566406,0.0385742,0.0703125,0.0610352
	c0.0126953,0.0224609,0.0214844,0.0493164,0.0214844,0.081543v0.7988281
	c0.1513672-0.2197266,0.2910156-0.3979492,0.4238281-0.5366211c0.1308594-0.1386719,0.2558594-0.2456055,0.3730469-0.3251953
	c0.1181641-0.0795898,0.2333984-0.1347656,0.3496094-0.1655273c0.1181641-0.0302734,0.2333984-0.0449219,0.3525391-0.0449219
	c0.0517578,0,0.1132812,0.0019531,0.1787109,0.0087891c0.0673828,0.0058594,0.1376953,0.0161133,0.2119141,0.0322266
	c0.0712891,0.0175781,0.1376953,0.034668,0.1962891,0.0551758c0.0566406,0.0200195,0.0976562,0.0429688,0.1259766,0.0610352
	c0.0244141,0.0205078,0.0419922,0.0405273,0.0488281,0.0581055c0.0068359,0.0185547,0.0126953,0.0419922,0.0195312,0.0698242
	c0.0058594,0.0297852,0.0136719,0.0708008,0.015625,0.125C137.6918945,58.4555664,137.6938477,58.5297852,137.6938477,58.6220703z"
	/>
<path d="M146.7094727,60.921875c0,0.4790039-0.0527344,0.909668-0.15625,1.2910156
	c-0.1044922,0.3833008-0.2568359,0.7075195-0.4560547,0.972168c-0.203125,0.2666016-0.4501953,0.472168-0.7470703,0.6171875
	c-0.296875,0.1435547-0.6376953,0.215332-1.0175781,0.215332c-0.1640625,0-0.3144531-0.0166016-0.4521484-0.0488281
	s-0.2734375-0.0834961-0.40625-0.1523438c-0.1337891-0.0683594-0.2617188-0.15625-0.3935547-0.262207
	c-0.1289062-0.1044922-0.2685547-0.2299805-0.4150391-0.3720703v2.7446289c0,0.0327148-0.0058594,0.0605469-0.0214844,0.0839844
	c-0.0175781,0.0249023-0.0458984,0.0454102-0.0791016,0.0625c-0.0361328,0.0161133-0.0898438,0.0268555-0.1552734,0.0371094
	c-0.0634766,0.0063477-0.1464844,0.0112305-0.2490234,0.0112305c-0.0986328,0-0.1787109-0.0048828-0.2441406-0.0112305
	c-0.0654297-0.0102539-0.1152344-0.0209961-0.1542969-0.0371094c-0.0410156-0.0170898-0.0634766-0.0375977-0.0800781-0.0625
	c-0.0126953-0.0234375-0.0185547-0.0512695-0.0185547-0.0839844v-7.6635742c0-0.0356445,0.0039062-0.0654297,0.0166016-0.0883789
	c0.0117188-0.0229492,0.0351562-0.0415039,0.0722656-0.0581055c0.0371094-0.0161133,0.0830078-0.0273438,0.1376953-0.0336914
	c0.0585938-0.0048828,0.1289062-0.0078125,0.2119141-0.0078125c0.0849609,0,0.1533203,0.0029297,0.2089844,0.0078125
	c0.0527344,0.0063477,0.0986328,0.0175781,0.1357422,0.0336914c0.0390625,0.0166016,0.0634766,0.0351562,0.0791016,0.0581055
	c0.0126953,0.0229492,0.0195312,0.0527344,0.0195312,0.0883789V59c0.1660156-0.1704102,0.328125-0.3168945,0.4804688-0.4433594
	c0.1552734-0.1269531,0.3105469-0.2314453,0.4677734-0.3144531c0.1552734-0.0830078,0.3164062-0.1459961,0.4804688-0.1889648
	c0.1660156-0.0429688,0.3378906-0.0634766,0.5224609-0.0634766c0.3974609,0,0.7382812,0.0756836,1.0175781,0.2319336
	c0.28125,0.152832,0.5087891,0.3647461,0.6835938,0.6333008c0.1767578,0.2680664,0.3056641,0.5810547,0.3867188,0.9355469
	C146.668457,60.1469727,146.7094727,60.5224609,146.7094727,60.921875z M145.6674805,61.0366211
	c0-0.2802734-0.0244141-0.5522461-0.0654297-0.8139648c-0.0449219-0.262207-0.1162109-0.4936523-0.2236328-0.6977539
	c-0.1025391-0.2016602-0.2421875-0.3652344-0.4169922-0.487793c-0.1748047-0.1210938-0.3955078-0.1821289-0.6572266-0.1821289
	c-0.1298828,0-0.2597656,0.0195312-0.3847656,0.0571289c-0.1289062,0.0385742-0.2548828,0.0996094-0.3886719,0.184082
	c-0.1289062,0.0830078-0.2666016,0.1918945-0.4101562,0.3286133c-0.1445312,0.1347656-0.2939453,0.3041992-0.4550781,0.503418
	v2.1826172c0.2773438,0.3364258,0.5439453,0.5942383,0.7910156,0.7729492
	c0.2509766,0.1791992,0.5126953,0.269043,0.7861328,0.269043c0.2539062,0,0.4716797-0.0610352,0.6533203-0.1835938
	c0.1816406-0.1220703,0.3300781-0.2836914,0.4414062-0.4868164c0.1132812-0.2041016,0.1962891-0.4321289,0.2509766-0.6835938
	C145.6391602,61.5473633,145.6674805,61.2924805,145.6674805,61.0366211z"/>
<path d="M152.3530273,63.7553711c0,0.0488281-0.0166016,0.0864258-0.0488281,0.1103516
	c-0.0332031,0.0239258-0.078125,0.0424805-0.1337891,0.0537109c-0.0576172,0.0141602-0.1396484,0.0195312-0.2490234,0.0195312
	c-0.1064453,0-0.1904297-0.0053711-0.2539062-0.0195312c-0.0634766-0.0112305-0.109375-0.0297852-0.1357422-0.0537109
	c-0.0322266-0.0239258-0.0449219-0.0615234-0.0449219-0.1103516v-0.5473633
	c-0.2382812,0.2553711-0.5058594,0.4545898-0.7998047,0.5961914c-0.2949219,0.1425781-0.6074219,0.2133789-0.9365234,0.2133789
	c-0.2871094,0-0.5488281-0.0371094-0.7832031-0.112793c-0.2333984-0.0751953-0.4316406-0.1835938-0.5976562-0.3256836
	c-0.1640625-0.1411133-0.2939453-0.3173828-0.3847656-0.5239258c-0.0898438-0.2080078-0.1376953-0.4428711-0.1376953-0.7084961
	c0-0.3071289,0.0634766-0.5766602,0.1894531-0.8037109c0.1269531-0.2280273,0.3085938-0.4169922,0.5449219-0.565918
	c0.2333984-0.1508789,0.5234375-0.265625,0.8642578-0.3388672c0.3408203-0.0756836,0.7255859-0.1137695,1.1494141-0.1137695
	h0.7578125v-0.4267578c0-0.2109375-0.0214844-0.3974609-0.0654297-0.5605469
	c-0.0458984-0.1630859-0.1181641-0.2978516-0.21875-0.4038086c-0.0976562-0.109375-0.2275391-0.1914062-0.3876953-0.2451172
	c-0.15625-0.0541992-0.3496094-0.0820312-0.5839844-0.0820312c-0.2460938,0-0.4697266,0.0297852-0.6679688,0.0883789
	c-0.1943359,0.0600586-0.3671875,0.1230469-0.515625,0.1938477c-0.1494141,0.0722656-0.2734375,0.1367188-0.3710938,0.1967773
	c-0.1005859,0.0585938-0.1748047,0.0878906-0.2236328,0.0878906c-0.0332031,0-0.0625-0.0087891-0.0849609-0.0244141
	c-0.0263672-0.0166016-0.0478516-0.0405273-0.0654297-0.0737305c-0.0205078-0.0322266-0.0332031-0.0742188-0.0390625-0.1235352
	c-0.0068359-0.0512695-0.0107422-0.1079102-0.0107422-0.1679688c0-0.1030273,0.0058594-0.1821289,0.0185547-0.2416992
	c0.0126953-0.0585938,0.0488281-0.1147461,0.1054688-0.1669922c0.0527344-0.0541992,0.1474609-0.1152344,0.28125-0.1865234
	c0.1357422-0.0712891,0.2890625-0.1367188,0.4658203-0.1948242c0.1748047-0.059082,0.3642578-0.1083984,0.5722656-0.1459961
	c0.2070312-0.0390625,0.4169922-0.0576172,0.6269531-0.0576172c0.3955078,0,0.7294922,0.043457,1.0078125,0.1337891
	c0.2744141,0.0893555,0.4990234,0.2202148,0.6679688,0.3916016c0.171875,0.1743164,0.2949219,0.3876953,0.3710938,0.6445312
	c0.078125,0.2558594,0.1171875,0.5556641,0.1171875,0.8959961V63.7553711z M151.3530273,61.25h-0.8583984
	c-0.2773438,0-0.515625,0.0239258-0.7207031,0.0698242c-0.203125,0.046875-0.3710938,0.1162109-0.5048828,0.2084961
	c-0.1328125,0.0908203-0.2333984,0.199707-0.2949219,0.3291016c-0.0634766,0.1279297-0.0957031,0.2744141-0.0957031,0.4418945
	c0,0.284668,0.0888672,0.5097656,0.2705078,0.6791992c0.1816406,0.1689453,0.4345703,0.2524414,0.7597656,0.2524414
	c0.2626953,0,0.5097656-0.0673828,0.7353516-0.2011719c0.2236328-0.1333008,0.4599609-0.3388672,0.7089844-0.6152344V61.25z"/>
<path d="M158.9262695,63.7495117c0,0.0332031-0.0107422,0.0595703-0.0253906,0.0830078
	c-0.0185547,0.0219727-0.0419922,0.0410156-0.0791016,0.0571289s-0.0869141,0.0292969-0.1523438,0.0375977
	c-0.0664062,0.0073242-0.1464844,0.0117188-0.2431641,0.0117188c-0.1025391,0-0.1826172-0.0043945-0.2509766-0.0117188
	c-0.0654297-0.0083008-0.1162109-0.0214844-0.1513672-0.0375977c-0.0371094-0.0161133-0.0634766-0.0351562-0.078125-0.0571289
	c-0.0185547-0.0234375-0.0263672-0.0498047-0.0263672-0.0830078v-3.2124023c0-0.3120117-0.0253906-0.5639648-0.0742188-0.7543945
	c-0.0478516-0.1933594-0.1171875-0.3569336-0.2138672-0.4946289c-0.0917969-0.1391602-0.2119141-0.2446289-0.3613281-0.3173828
	c-0.1474609-0.0732422-0.3203125-0.1098633-0.5146484-0.1098633c-0.2539062,0-0.5048828,0.0883789-0.7578125,0.2685547
	c-0.2519531,0.1787109-0.5136719,0.4404297-0.7929688,0.7851562v3.8349609c0,0.0332031-0.0039062,0.0595703-0.0224609,0.0830078
	c-0.0166016,0.0219727-0.0429688,0.0410156-0.078125,0.0571289c-0.0371094,0.0161133-0.0898438,0.0292969-0.1552734,0.0375977
	c-0.0634766,0.0073242-0.1464844,0.0117188-0.2490234,0.0117188c-0.0986328,0-0.1787109-0.0043945-0.2421875-0.0117188
	c-0.0654297-0.0083008-0.1152344-0.0214844-0.1582031-0.0375977c-0.0371094-0.0161133-0.0625-0.0351562-0.078125-0.0571289
	c-0.0126953-0.0234375-0.0195312-0.0498047-0.0195312-0.0830078v-5.4863281c0-0.0322266,0.0048828-0.059082,0.0175781-0.081543
	c0.0136719-0.0224609,0.0351562-0.0444336,0.0742188-0.0610352c0.0341797-0.0185547,0.0830078-0.03125,0.1396484-0.0375977
	c0.0546875-0.0048828,0.1308594-0.0078125,0.2255859-0.0078125c0.0898438,0,0.1621094,0.0029297,0.2216797,0.0078125
	c0.0595703,0.0063477,0.1054688,0.019043,0.1376953,0.0375977c0.03125,0.0166016,0.0556641,0.0385742,0.0683594,0.0610352
	c0.015625,0.0224609,0.0214844,0.0493164,0.0214844,0.081543v0.7260742
	c0.3105469-0.3457031,0.6162109-0.5981445,0.9228516-0.7583008c0.3095703-0.1606445,0.6201172-0.2412109,0.9306641-0.2412109
	c0.3662109,0,0.6738281,0.0620117,0.9248047,0.1850586c0.2480469,0.1240234,0.4501953,0.2900391,0.6054688,0.4960938
	c0.1552734,0.2075195,0.2646484,0.4501953,0.3330078,0.7285156c0.0664062,0.2792969,0.1015625,0.6137695,0.1015625,1.0048828
	V63.7495117z"/>
<path d="M165.440918,60.7680664c0,0.1586914-0.0390625,0.2705078-0.1201172,0.3383789
	c-0.0791016,0.0673828-0.1679688,0.1005859-0.2705078,0.1005859h-3.6132812c0,0.3056641,0.0283203,0.5791016,0.0917969,0.8237305
	c0.0615234,0.2436523,0.1611328,0.4536133,0.3056641,0.6274414c0.1445312,0.1757812,0.3291016,0.309082,0.5566406,0.4023438
	c0.2294922,0.0942383,0.5117188,0.140625,0.8388672,0.140625c0.2626953,0,0.4951172-0.0209961,0.6992188-0.0634766
	c0.203125-0.043457,0.3798828-0.090332,0.53125-0.1430664c0.1484375-0.0537109,0.2695312-0.1020508,0.3662109-0.1445312
	c0.09375-0.0419922,0.1679688-0.0644531,0.21875-0.0644531c0.0253906,0,0.0517578,0.0087891,0.0761719,0.0224609
	c0.0214844,0.0136719,0.0400391,0.0361328,0.0498047,0.0634766c0.0136719,0.0292969,0.0244141,0.0683594,0.0292969,0.1196289
	c0.0058594,0.0498047,0.0078125,0.1123047,0.0078125,0.1855469c0,0.0527344-0.0019531,0.0981445-0.0039062,0.1367188
	c-0.0039062,0.0380859-0.0087891,0.0727539-0.0166016,0.1049805c-0.0068359,0.0302734-0.0166016,0.0561523-0.0292969,0.0820312
	c-0.015625,0.0234375-0.0322266,0.0463867-0.0566406,0.0698242c-0.0214844,0.0229492-0.0869141,0.0585938-0.1962891,0.1083984
	c-0.1123047,0.0512695-0.2539062,0.1020508-0.4287109,0.1499023c-0.1748047,0.0498047-0.3779297,0.09375-0.6064453,0.1308594
	c-0.2275391,0.0395508-0.4726562,0.0581055-0.7324219,0.0581055c-0.4521484,0-0.8447266-0.0625-1.1884766-0.1889648
	c-0.3388672-0.125-0.6220703-0.3125-0.8564453-0.5600586c-0.2314453-0.2485352-0.4033203-0.559082-0.5234375-0.9326172
	c-0.1181641-0.3735352-0.1748047-0.809082-0.1748047-1.3041992c0-0.4726562,0.0585938-0.8959961,0.1826172-1.2729492
	c0.1210938-0.3759766,0.2958984-0.6928711,0.5273438-0.9550781c0.2285156-0.2617188,0.5058594-0.4643555,0.8320312-0.6035156
	c0.3251953-0.1411133,0.6884766-0.2104492,1.0898438-0.2104492c0.4306641,0,0.796875,0.0693359,1.1005859,0.2055664
	c0.3017578,0.1401367,0.5507812,0.3251953,0.7480469,0.559082c0.1953125,0.2333984,0.3378906,0.5068359,0.4296875,0.8237305
	c0.0898438,0.3139648,0.1357422,0.6489258,0.1357422,1.0073242V60.7680664z M164.4291992,60.4697266
	c0.0107422-0.5273438-0.1064453-0.9428711-0.3515625-1.2431641c-0.2490234-0.300293-0.6132812-0.4511719-1.1005859-0.4511719
	c-0.25,0-0.4697266,0.0463867-0.6572266,0.140625c-0.1884766,0.09375-0.3457031,0.2172852-0.4726562,0.3720703
	c-0.1269531,0.1533203-0.2255859,0.3339844-0.2949219,0.5380859c-0.0683594,0.2070312-0.1074219,0.4194336-0.1152344,0.6435547
	H164.4291992z"/>
<path d="M167.9760742,63.7495117c0,0.0332031-0.0078125,0.0595703-0.0205078,0.0830078
	c-0.0185547,0.0219727-0.046875,0.0410156-0.0810547,0.0571289c-0.0380859,0.0161133-0.0898438,0.0292969-0.1533203,0.0375977
	c-0.0654297,0.0073242-0.1484375,0.0117188-0.2490234,0.0117188c-0.0986328,0-0.1787109-0.0043945-0.2441406-0.0117188
	c-0.0654297-0.0083008-0.1162109-0.0214844-0.15625-0.0375977c-0.0361328-0.0161133-0.0654297-0.0351562-0.078125-0.0571289
	c-0.0146484-0.0234375-0.0224609-0.0498047-0.0224609-0.0830078v-8.1445312c0-0.03125,0.0078125-0.0605469,0.0224609-0.0849609
	c0.0126953-0.0249023,0.0419922-0.0454102,0.078125-0.0615234c0.0400391-0.0161133,0.0908203-0.0273438,0.15625-0.0371094
	c0.0654297-0.0068359,0.1455078-0.0117188,0.2441406-0.0117188c0.1005859,0,0.1835938,0.0048828,0.2490234,0.0117188
	c0.0634766,0.0097656,0.1152344,0.0209961,0.1533203,0.0371094c0.0341797,0.0161133,0.0625,0.0366211,0.0810547,0.0615234
	c0.0126953,0.0244141,0.0205078,0.0537109,0.0205078,0.0849609V63.7495117z"/>
<path d="M173.2807617,62.2573242c0,0.2807617-0.0498047,0.5283203-0.1542969,0.7490234
	c-0.1044922,0.2192383-0.2519531,0.4042969-0.4414062,0.5541992c-0.1933594,0.1508789-0.4179688,0.2651367-0.6845703,0.3413086
	c-0.2646484,0.0776367-0.5527344,0.1157227-0.8710938,0.1157227c-0.1972656,0-0.3798828-0.0136719-0.5566406-0.0458984
	c-0.1806641-0.0307617-0.3369141-0.0678711-0.4765625-0.1157227c-0.1396484-0.046875-0.2607422-0.0957031-0.3554688-0.1455078
	c-0.0986328-0.050293-0.1708984-0.0966797-0.2158203-0.1381836c-0.0429688-0.0395508-0.0761719-0.0976562-0.0976562-0.1704102
	c-0.0175781-0.0727539-0.0283203-0.1723633-0.0283203-0.2983398c0-0.0776367,0.0048828-0.1425781,0.0107422-0.1943359
	c0.0087891-0.0532227,0.0175781-0.097168,0.03125-0.128418c0.0126953-0.0332031,0.0302734-0.0556641,0.0517578-0.0703125
	c0.0224609-0.0141602,0.046875-0.0214844,0.0771484-0.0214844c0.0429688,0,0.109375,0.0268555,0.1982422,0.0830078
	c0.0878906,0.0537109,0.1943359,0.1132812,0.3212891,0.1782227c0.1308594,0.0654297,0.2822266,0.1259766,0.4541016,0.1816406
	c0.1748047,0.0532227,0.3759766,0.0805664,0.6025391,0.0805664c0.1728516,0,0.328125-0.0175781,0.4658203-0.0541992
	c0.1376953-0.0361328,0.2597656-0.0893555,0.3583984-0.1611328c0.1025391-0.0717773,0.1787109-0.1611328,0.2363281-0.2709961
	c0.0537109-0.109375,0.0820312-0.2392578,0.0820312-0.3901367c0-0.1547852-0.0410156-0.2856445-0.1171875-0.390625
	c-0.0810547-0.1054688-0.1865234-0.1987305-0.3164062-0.2792969c-0.1298828-0.081543-0.2753906-0.15625-0.4394531-0.21875
	c-0.1621094-0.0610352-0.328125-0.1274414-0.5029297-0.1972656c-0.1708984-0.0683594-0.3398438-0.1469727-0.5039062-0.2338867
	c-0.1669922-0.0883789-0.3144531-0.1948242-0.4443359-0.3203125c-0.1289062-0.1269531-0.2353516-0.2753906-0.3144531-0.4521484
	c-0.078125-0.1743164-0.1171875-0.3823242-0.1171875-0.6274414c0-0.2143555,0.0410156-0.4208984,0.1259766-0.6181641
	c0.0839844-0.1967773,0.2050781-0.3701172,0.3740234-0.5185547c0.1660156-0.1464844,0.3759766-0.2666016,0.6240234-0.355957
	c0.2490234-0.090332,0.5429688-0.1337891,0.8759766-0.1337891c0.1455078,0,0.2929688,0.0112305,0.4375,0.0351562
	c0.1455078,0.0244141,0.2792969,0.0551758,0.3974609,0.0917969c0.1181641,0.0371094,0.2167969,0.0766602,0.3007812,0.1181641
	c0.0839844,0.0449219,0.1464844,0.0820312,0.1884766,0.1137695c0.0439453,0.0327148,0.0703125,0.0600586,0.0849609,0.0864258
	c0.015625,0.0224609,0.0263672,0.0512695,0.0332031,0.0800781c0.0039062,0.0317383,0.0107422,0.0698242,0.0175781,0.1137695
	c0.0068359,0.0444336,0.0068359,0.1000977,0.0068359,0.1650391c0,0.0678711,0,0.1298828-0.0068359,0.1787109
	c-0.0068359,0.0512695-0.0175781,0.0942383-0.0302734,0.1254883c-0.0166016,0.0322266-0.03125,0.0566406-0.0507812,0.0703125
	c-0.0214844,0.0136719-0.0458984,0.0214844-0.0703125,0.0214844c-0.0371094,0-0.0869141-0.0224609-0.15625-0.0668945
	c-0.0703125-0.0444336-0.1601562-0.0927734-0.2695312-0.1435547c-0.1064453-0.0507812-0.2382812-0.0991211-0.3867188-0.1435547
	c-0.1484375-0.0449219-0.3193359-0.0664062-0.5068359-0.0664062c-0.1728516,0-0.3222656,0.0200195-0.4541016,0.0571289
	c-0.1289062,0.0395508-0.2363281,0.0942383-0.3183594,0.1645508c-0.0839844,0.0717773-0.1474609,0.1557617-0.1884766,0.2524414
	c-0.0439453,0.0981445-0.0654297,0.2050781-0.0654297,0.3188477c0,0.1582031,0.0390625,0.2915039,0.1220703,0.3979492
	c0.0830078,0.1088867,0.1855469,0.2036133,0.3144531,0.2832031c0.1318359,0.081543,0.2802734,0.1557617,0.4482422,0.2202148
	c0.1660156,0.065918,0.3339844,0.1328125,0.5087891,0.2016602c0.1708984,0.0688477,0.34375,0.1464844,0.5107422,0.230957
	c0.1679688,0.0849609,0.3173828,0.1894531,0.4511719,0.3105469c0.1279297,0.1225586,0.2324219,0.269043,0.3125,0.4404297
	C173.2416992,61.8173828,173.2807617,62.0209961,173.2807617,62.2573242z"/>
<path fill="#D24A43" d="M183.5834961,39.3334961c0,6.6269531-5.3730469,12-12,12H12c-6.6274414,0-12-5.3730469-12-12V12
	C0,5.3725586,5.3725586,0,12,0h159.5834961c6.6269531,0,12,5.3725586,12,12V39.3334961z"/>
<path fill="#FFFFFF" d="M14.2954102,40.2211914c0,0.125-0.03125,0.234375-0.09375,0.328125s-0.171875,0.1679688-0.328125,0.2226562
	s-0.3632812,0.1015625-0.6210938,0.140625s-0.5820312,0.0585938-0.9726562,0.0585938
	c-0.375,0-0.6953125-0.0195312-0.9609375-0.0585938s-0.4765625-0.0859375-0.6328125-0.140625
	s-0.265625-0.1289062-0.328125-0.2226562s-0.09375-0.203125-0.09375-0.328125V11.112793
	c0-0.125,0.0351562-0.234375,0.1054688-0.328125s0.1875-0.1679688,0.3515625-0.2226562s0.375-0.1015625,0.6328125-0.140625
	s0.5664062-0.0585938,0.9257812-0.0585938c0.390625,0,0.7148438,0.0195312,0.9726562,0.0585938
	s0.4648438,0.0859375,0.6210938,0.140625s0.265625,0.1289062,0.328125,0.2226562s0.09375,0.203125,0.09375,0.328125V40.2211914z"/>
<path fill="#FFFFFF" d="M45.2797852,39.1665039c0,0.3125-0.0527344,0.578125-0.15625,0.796875
	c-0.1054688,0.21875-0.2431641,0.3984375-0.4121094,0.5390625c-0.1699219,0.140625-0.3603516,0.2421875-0.5703125,0.3046875
	c-0.2109375,0.0625-0.4199219,0.09375-0.6308594,0.09375h-1.3320312c-0.4208984,0-0.7890625-0.0429688-1.1035156-0.1289062
	c-0.3154297-0.0859375-0.6142578-0.2421875-0.8964844-0.46875c-0.2832031-0.2265625-0.5664062-0.5351562-0.8496094-0.9257812
	c-0.28125-0.390625-0.5820312-0.890625-0.8994141-1.5L29.1772461,20.628418
	c-0.4833984-0.890625-0.9716797-1.8242188-1.4619141-2.8007812c-0.4921875-0.9765625-0.9492188-1.9257812-1.3730469-2.8476562
	h-0.046875c0.03125,1.125,0.0546875,2.2734375,0.0703125,3.4453125s0.0234375,2.3359375,0.0234375,3.4921875v18.3037109
	c0,0.109375-0.0332031,0.2148438-0.0976562,0.3164062c-0.0664062,0.1015625-0.1777344,0.1796875-0.3339844,0.234375
	c-0.1582031,0.0546875-0.3632812,0.1015625-0.6191406,0.140625s-0.5820312,0.0585938-0.9765625,0.0585938
	c-0.3964844,0-0.7216797-0.0195312-0.9765625-0.0585938c-0.2558594-0.0390625-0.4580078-0.0859375-0.6064453-0.140625
	c-0.1494141-0.0546875-0.2548828-0.1328125-0.3212891-0.234375s-0.0996094-0.2070312-0.0996094-0.3164062V12.237793
	c0-0.625,0.1777344-1.0703125,0.5332031-1.3359375c0.3535156-0.265625,0.7412109-0.3984375,1.1601562-0.3984375h1.984375
	c0.4667969,0,0.8583984,0.0390625,1.1728516,0.1171875s0.5966797,0.2070312,0.8466797,0.3867188s0.4921875,0.4296875,0.7265625,0.75
	c0.2324219,0.3203125,0.4785156,0.7226562,0.7353516,1.2070312l7.1123047,13.3115234
	c0.4375,0.8125,0.8613281,1.6054688,1.2695312,2.3789062c0.40625,0.7734375,0.7988281,1.5351562,1.1777344,2.2851562
	c0.3769531,0.75,0.75,1.4882812,1.1210938,2.2148438c0.3691406,0.7265625,0.7363281,1.4570312,1.0976562,2.1914062h0.0234375
	c-0.03125-1.234375-0.0507812-2.5195312-0.0585938-3.8554688s-0.0117188-2.6210938-0.0117188-3.8554688V11.1831055
	c0-0.109375,0.0332031-0.2109375,0.0996094-0.3046875s0.1767578-0.1757812,0.3339844-0.2460938
	c0.15625-0.0703125,0.3623047-0.1210938,0.6171875-0.1523438c0.2558594-0.03125,0.5898438-0.046875,1.0019531-0.046875
	c0.3632812,0,0.6757812,0.015625,0.9394531,0.046875s0.4707031,0.0820312,0.6191406,0.1523438
	s0.2558594,0.1523438,0.3222656,0.2460938c0.0644531,0.09375,0.0976562,0.1953125,0.0976562,0.3046875V39.1665039z"/>
<path fill="#FFFFFF" d="M72.3500977,12.237793c0,0.296875-0.015625,0.5546875-0.046875,0.7734375
	s-0.0820312,0.3945312-0.1523438,0.5273438s-0.15625,0.2304688-0.2578125,0.2929688s-0.2148438,0.09375-0.3398438,0.09375h-8.53125
	v26.2958984c0,0.125-0.03125,0.234375-0.09375,0.328125s-0.171875,0.1679688-0.328125,0.2226562
	s-0.3632812,0.1015625-0.6210938,0.140625s-0.5820312,0.0585938-0.9726562,0.0585938
	c-0.375,0-0.6953125-0.0195312-0.9609375-0.0585938s-0.4765625-0.0859375-0.6328125-0.140625
	s-0.265625-0.1289062-0.328125-0.2226562s-0.09375-0.203125-0.09375-0.328125V13.925293h-8.53125
	c-0.125,0-0.2382812-0.03125-0.3398438-0.09375s-0.1835938-0.1601562-0.2460938-0.2929688s-0.1132812-0.3085938-0.1523438-0.5273438
	s-0.0585938-0.4765625-0.0585938-0.7734375s0.0195312-0.5585938,0.0585938-0.7851562s0.0898438-0.4101562,0.1523438-0.5507812
	s0.1445312-0.2421875,0.2460938-0.3046875s0.2148438-0.09375,0.3398438-0.09375h21.09375
	c0.125,0,0.2382812,0.03125,0.3398438,0.09375s0.1875,0.1640625,0.2578125,0.3046875s0.1210938,0.3242188,0.1523438,0.5507812
	S72.3500977,11.940918,72.3500977,12.237793z"/>
<path fill="#FFFFFF" d="M93.6079102,39.1665039c0,0.28125-0.015625,0.5273438-0.046875,0.7382812
	s-0.0859375,0.3867188-0.1640625,0.5273438s-0.1679688,0.2421875-0.2695312,0.3046875s-0.2148438,0.09375-0.3398438,0.09375
	H78.2329102c-0.359375,0-0.6992188-0.1210938-1.0195312-0.3632812s-0.4804688-0.6679688-0.4804688-1.2773438V12.144043
	c0-0.609375,0.1601562-1.0351562,0.4804688-1.2773438s0.6601562-0.3632812,1.0195312-0.3632812h14.390625
	c0.125,0,0.2382812,0.03125,0.3398438,0.09375s0.1835938,0.1640625,0.2460938,0.3046875s0.1132812,0.3164062,0.1523438,0.5273438
	s0.0585938,0.4726562,0.0585938,0.7851562c0,0.28125-0.0195312,0.5273438-0.0585938,0.7382812
	s-0.0898438,0.3828125-0.1523438,0.515625s-0.1445312,0.2304688-0.2460938,0.2929688s-0.2148438,0.09375-0.3398438,0.09375
	h-11.859375v9.515625h10.171875c0.125,0,0.2382812,0.0351562,0.3398438,0.1054688s0.1875,0.1679688,0.2578125,0.2929688
	s0.1210938,0.296875,0.1523438,0.515625s0.046875,0.4765625,0.046875,0.7734375c0,0.28125-0.015625,0.5234375-0.046875,0.7265625
	c-0.03125,0.2021484-0.0820312,0.3662109-0.1523438,0.4912109s-0.15625,0.2148438-0.2578125,0.2695312
	s-0.2148438,0.0820312-0.3398438,0.0820312h-10.171875v10.8515625h12.0234375c0.125,0,0.2382812,0.03125,0.3398438,0.09375
	s0.1914062,0.1601562,0.2695312,0.2929688s0.1328125,0.3046875,0.1640625,0.515625S93.6079102,38.8540039,93.6079102,39.1665039z"/>
<path fill="#FFFFFF" d="M120.3969727,40.2211914c0,0.125-0.0234375,0.234375-0.0703125,0.328125
	s-0.1484375,0.171875-0.3046875,0.234375s-0.375,0.109375-0.65625,0.140625s-0.65625,0.046875-1.125,0.046875
	c-0.40625,0-0.7382812-0.015625-0.9960938-0.046875s-0.4648438-0.0820312-0.6210938-0.1523438
	s-0.2773438-0.1679688-0.3632812-0.2929688s-0.1601562-0.28125-0.2226562-0.46875l-2.7890625-7.1484375
	c-0.328125-0.8125-0.6679688-1.5585938-1.0195312-2.2382812s-0.7695312-1.265625-1.2539062-1.7578125
	s-1.0546875-0.875-1.7109375-1.1484375s-1.4453125-0.4101562-2.3671875-0.4101562h-2.6953125v12.9140625
	c0,0.125-0.0351562,0.234375-0.1054688,0.328125s-0.1796875,0.1679688-0.328125,0.2226562s-0.3515625,0.1015625-0.609375,0.140625
	s-0.5820312,0.0585938-0.9726562,0.0585938s-0.7148438-0.0195312-0.9726562-0.0585938s-0.4648438-0.0859375-0.6210938-0.140625
	s-0.265625-0.1289062-0.328125-0.2226562s-0.09375-0.203125-0.09375-0.328125V12.144043
	c0-0.609375,0.1601562-1.0351562,0.4804688-1.2773438s0.6601562-0.3632812,1.0195312-0.3632812h6.4453125
	c0.765625,0,1.4023438,0.0195312,1.9101562,0.0585938s0.9648438,0.0820312,1.3710938,0.1289062
	c1.171875,0.203125,2.2070312,0.5234375,3.1054688,0.9609375s1.6523438,0.9921875,2.2617188,1.6640625
	s1.0664062,1.4414062,1.3710938,2.3085938s0.4570312,1.8242188,0.4570312,2.8710938
	c0,1.015625-0.1367188,1.9257812-0.4101562,2.7304688s-0.6679688,1.515625-1.1835938,2.1328125
	s-1.1328125,1.1523438-1.8515625,1.6054688s-1.5234375,0.8359375-2.4140625,1.1474609
	c0.5,0.21875,0.953125,0.4960938,1.359375,0.8320312s0.7851562,0.7382812,1.1367188,1.2070312
	s0.6835938,1.0078125,0.9960938,1.6171875s0.625,1.296875,0.9375,2.0625l2.71875,6.6796875
	c0.21875,0.5625,0.359375,0.9570312,0.421875,1.1835938S120.3969727,40.0961914,120.3969727,40.2211914z M114.3266602,18.9174805
	c0-1.1875-0.265625-2.1914062-0.796875-3.0117188s-1.421875-1.4101562-2.671875-1.7695312
	c-0.390625-0.109375-0.8320312-0.1875-1.3242188-0.234375s-1.1367188-0.0703125-1.9335938-0.0703125h-3.3984375v10.21875h3.9375
	c1.0625,0,1.9804688-0.1289062,2.7539062-0.3867188s1.4179688-0.6171875,1.9335938-1.078125
	s0.8945312-1.0039062,1.1367188-1.6289062S114.3266602,19.6518555,114.3266602,18.9174805z"/>
<path fill="#FFFFFF" d="M173.3188477,32.3227539c0,1.421875-0.2617188,2.6875-0.7851562,3.796875
	s-1.25,2.0507812-2.1796875,2.8242188s-2.0234375,1.3554688-3.28125,1.7460938s-2.6132812,0.5859375-4.0664062,0.5859375
	c-1.015625,0-1.9570312-0.0859375-2.8242188-0.2578125s-1.640625-0.3828125-2.3203125-0.6328125
	s-1.25-0.5078125-1.7109375-0.7734375s-0.78125-0.4921875-0.9609375-0.6796875s-0.3125-0.4257812-0.3984375-0.7148438
	s-0.1289062-0.6757812-0.1289062-1.1601562c0-0.34375,0.015625-0.6289062,0.046875-0.8554688s0.078125-0.4101562,0.140625-0.5507812
	s0.140625-0.2382812,0.234375-0.2929688s0.203125-0.0820312,0.328125-0.0820312c0.21875,0,0.5273438,0.1328125,0.9257812,0.3984375
	s0.9101562,0.5546875,1.5351562,0.8671875s1.3789062,0.6054688,2.2617188,0.8789062s1.9023438,0.4101562,3.0585938,0.4101562
	c0.875,0,1.6757812-0.1171875,2.4023438-0.3515625s1.3515625-0.5664062,1.875-0.9960938s0.9257812-0.9570312,1.2070312-1.5820312
	s0.421875-1.3359375,0.421875-2.1328125c0-0.859375-0.1953125-1.59375-0.5859375-2.203125s-0.90625-1.1445312-1.546875-1.6054688
	s-1.3710938-0.8828125-2.1914062-1.265625s-1.6601562-0.7734375-2.5195312-1.171875s-1.6953125-0.8388672-2.5078125-1.3232422
	s-1.5390625-1.0546875-2.1796875-1.7109375s-1.1601562-1.4257812-1.5585938-2.3085938s-0.5976562-1.9414062-0.5976562-3.1757812
	c0-1.265625,0.2304688-2.3945312,0.6914062-3.3867188s1.1015625-1.8242188,1.921875-2.4960938
	s1.796875-1.1835938,2.9296875-1.5351562s2.3554688-0.5273438,3.6679688-0.5273438
	c0.671875,0,1.3476562,0.0585938,2.0273438,0.1757812s1.3203125,0.2734375,1.921875,0.46875s1.1367188,0.4140625,1.6054688,0.65625
	s0.7773438,0.4375,0.9257812,0.5859375s0.2460938,0.265625,0.2929688,0.3515625s0.0859375,0.1953125,0.1171875,0.328125
	s0.0546875,0.2929688,0.0703125,0.4804688s0.0234375,0.4296875,0.0234375,0.7265625c0,0.28125-0.0117188,0.53125-0.0351562,0.75
	s-0.0585938,0.4023438-0.1054688,0.5507812s-0.1132812,0.2578125-0.1992188,0.328125s-0.1835938,0.1054688-0.2929688,0.1054688
	c-0.171875,0-0.4414062-0.109375-0.8085938-0.328125s-0.8164062-0.4648438-1.3476562-0.7382812s-1.1601562-0.5234375-1.8867188-0.75
	s-1.5429688-0.3398438-2.4492188-0.3398438c-0.84375,0-1.578125,0.1132812-2.203125,0.3398438
	s-1.140625,0.5273438-1.546875,0.9023438s-0.7109375,0.8203125-0.9140625,1.3359375s-0.3046875,1.0625-0.3046875,1.640625
	c0,0.84375,0.1953125,1.5703125,0.5859375,2.1796875s0.9101562,1.1484375,1.5585938,1.6171875
	s1.3867188,0.8984375,2.2148438,1.2890625s1.671875,0.7851562,2.53125,1.1835938s1.703125,0.8359375,2.53125,1.3125
	s1.5664062,1.0380859,2.2148438,1.6865234s1.171875,1.4140625,1.5703125,2.296875S173.3188477,31.1196289,173.3188477,32.3227539z"
	/>
<path fill="#FFFFFF" d="M145.0297852,0v11.112793v3.2460938v15.2919922c0,1.359375-0.1679688,2.546875-0.5039062,3.5625
	s-0.8203125,1.8671875-1.453125,2.5546875s-1.40625,1.203125-2.3203125,1.546875s-1.9570312,0.515625-3.1289062,0.515625
	c-1.140625,0-2.1679688-0.1757812-3.0820312-0.5273438s-1.6953125-0.875-2.34375-1.5703125
	s-1.1445312-1.5664062-1.4882812-2.6132812s-0.515625-2.2734375-0.515625-3.6796875V14.3588867V11.112793V0h-4.0078125v11.112793
	v3.2460938v15.5732422c0,1.859375,0.265625,3.5,0.796875,4.921875s1.2890625,2.6054688,2.2734375,3.5507812
	s2.1640625,1.6601562,3.5390625,2.1445312s2.8984375,0.7265625,4.5703125,0.7265625
	c1.828125,0,3.4609375-0.2578125,4.8984375-0.7734375s2.65625-1.2734375,3.65625-2.2734375s1.7695312-2.2226562,2.3085938-3.6679688
	s0.8085938-3.0898438,0.8085938-4.9335938V14.3588867V11.112793V0H145.0297852z"/>
</svg>
